<svg xmlns="http://www.w3.org/2000/svg" width="18" height="20" viewBox="0 0 18 20" fill="none">
<path fill-rule="evenodd" clip-rule="evenodd" d="M16.5 6.12308C16.5 6.18675 16.499 6.25017 16.4969 6.31333C17.3917 6.80054 18 7.75804 18 8.85956C18 10.2475 17.0341 11.4069 15.7463 11.6847L16.6393 10.0194C16.7875 9.77268 16.6098 9.45855 16.322 9.45855H16.2611C15.7559 9.45855 15.4066 8.95337 15.5849 8.48065L15.9858 7.41824C16.095 7.13819 15.8884 6.83597 15.5879 6.83597H15.5644H12.5279H12.5147C12.3183 6.83597 12.146 6.96681 12.0933 7.15595L10.8562 11.5962L10.8139 11.7481L3.9 11.7481C1.74609 11.7481 0 9.97839 0 7.79537C0 5.61236 1.74609 3.84267 3.9 3.84267C4.54999 3.84267 5.16283 4.00383 5.70176 4.28886C6.45218 2.08285 8.51849 0.498077 10.95 0.498077C14.0152 0.498077 16.5 3.01648 16.5 6.12308Z" fill="#67BEFF"/>
<path fill-rule="evenodd" clip-rule="evenodd" d="M8.68441 12.8498C8.42178 12.7645 8.13971 12.9082 8.05437 13.1709L6.7624 17.1471C6.67706 17.4098 6.82079 17.6918 7.08342 17.7772C7.34604 17.8625 7.62812 17.7188 7.71345 17.4562L9.00543 13.4799C9.09076 13.2172 8.94704 12.9352 8.68441 12.8498ZM6.6712 12.8498C6.40857 12.7645 6.12649 12.9082 6.04116 13.1709L4.3375 18.4142C4.25217 18.6768 4.39589 18.9589 4.65852 19.0442C4.92115 19.1295 5.20322 18.9858 5.28856 18.7232L6.99222 13.4799C7.07755 13.2172 6.93382 12.9352 6.6712 12.8498ZM4.02795 13.1709C4.11328 12.9082 4.39536 12.7645 4.65798 12.8498C4.92061 12.9352 5.06433 13.2172 4.979 13.4799L4.09871 16.1891C4.01338 16.4518 3.7313 16.5955 3.46867 16.5101C3.20605 16.4248 3.06232 16.1427 3.14765 15.8801L4.02795 13.1709ZM10.6975 12.8498C10.4349 12.7645 10.1528 12.9082 10.0675 13.1709L9.1872 15.8801C9.10186 16.1427 9.24559 16.4248 9.50822 16.5101C9.77084 16.5955 10.0529 16.4518 10.1383 16.1891L11.0185 13.4799C11.1039 13.2172 10.9602 12.9352 10.6975 12.8498Z" fill="#B3DEFF"/>
<path fill-rule="evenodd" clip-rule="evenodd" d="M12.7726 7.42874C12.6821 7.42874 12.6029 7.48949 12.5795 7.57688L11.5284 11.4915C11.4943 11.6186 11.59 11.7434 11.7216 11.7434H13.1325C13.2519 11.7434 13.3447 11.8473 13.3313 11.9659L12.9538 15.3063C12.9288 15.5276 13.2297 15.6179 13.3307 15.4195L15.9568 10.2629C16.0246 10.1299 15.9279 9.97219 15.7786 9.97219H14.6252C14.4834 9.97219 14.3866 9.82867 14.4398 9.6972L15.2461 7.70373C15.2992 7.57226 15.2025 7.42874 15.0607 7.42874H12.7726Z" fill="#FFB200"/>
</svg>