<svg xmlns="http://www.w3.org/2000/svg" width="18" height="18" viewBox="0 0 18 18" fill="none">
<path d="M7.97647 14.8088L7.83577 14.6875H7.65H2.8125C1.51364 14.6875 0.5 13.6739 0.5 12.375V2.8125C0.5 1.51364 1.51364 0.5 2.8125 0.5H15.1875C16.4864 0.5 17.5 1.51364 17.5 2.8125V12.375C17.5 13.6739 16.4864 14.6875 15.1875 14.6875H11.8125H11.3125V15.1875V17.5H11.0983L7.97647 14.8088ZM11.1875 14.5625H15.1875C16.4199 14.5625 17.375 13.6074 17.375 12.375V2.8125C17.375 1.58011 16.4199 0.625 15.1875 0.625H2.8125C1.58011 0.625 0.625 1.58011 0.625 2.8125V12.375C0.625 13.6074 1.58011 14.5625 2.8125 14.5625H7.85631L10.3588 16.7455L11.1875 17.4684V16.3687V14.5625Z" stroke="#888888"/>
</svg>