<svg xmlns="http://www.w3.org/2000/svg" width="200" height="32" viewBox="0 0 200 32" fill="none">
<g clip-path="url(#clip0_755_37905)">
<path d="M48.0756 7.11719V26.2716H44.1953V7.11719H48.0756Z" fill="white"/>
<path d="M65.8046 21.1561C65.8206 21.8991 65.6434 22.6338 65.2899 23.2889C64.9365 23.9441 64.4189 24.4976 63.7871 24.8961C62.4422 25.8111 60.5995 26.2719 58.2391 26.2719C55.6612 26.2719 53.6706 25.8267 52.2673 24.9362C51.5716 24.4797 50.9865 23.8758 50.5539 23.1679C50.1213 22.46 49.8521 21.6657 49.7656 20.8422H54.0696C54.134 21.2182 54.2845 21.5746 54.5096 21.8838C54.7346 22.1929 55.0281 22.4467 55.3675 22.6254C56.3295 23.0457 57.3781 23.2334 58.4274 23.173C59.346 23.2288 60.2655 23.0782 61.1173 22.7322C61.3856 22.6053 61.6103 22.4026 61.7634 22.1497C61.9165 21.8967 61.9912 21.6045 61.9781 21.3097C61.9749 21.0599 61.8907 20.8179 61.7381 20.6194C61.5855 20.4209 61.3725 20.2766 61.1308 20.2077C59.8353 19.8634 58.5037 19.6706 57.1631 19.6333C54.6614 19.4396 52.8995 18.9988 51.8907 18.2976C51.3933 17.9611 50.992 17.5026 50.7257 16.9667C50.4594 16.4307 50.3372 15.8355 50.3709 15.2388C50.3492 14.5255 50.5114 13.8185 50.8421 13.185C51.1729 12.5515 51.6611 12.0124 52.2606 11.6189C53.5204 10.7284 55.2689 10.2832 57.506 10.2832C59.8463 10.2832 61.6822 10.6973 63.0138 11.5254C63.6746 11.9448 64.2402 12.4963 64.6744 13.1449C65.1086 13.7934 65.402 14.5248 65.5356 15.2922H61.5007C61.4361 14.9569 61.2953 14.6406 61.089 14.3674C60.8827 14.0943 60.6164 13.8715 60.3103 13.716C59.4296 13.3363 58.4714 13.167 57.5128 13.2218C56.6591 13.1724 55.8054 13.3186 55.0178 13.6492C54.7653 13.7608 54.5515 13.9439 54.4031 14.1755C54.2548 14.4072 54.1786 14.6771 54.1839 14.9516C54.1829 15.2065 54.2658 15.4547 54.42 15.6585C54.5741 15.8622 54.7912 16.0104 55.038 16.0803C56.293 16.4214 57.5841 16.6141 58.8847 16.6546C61.5746 16.8817 63.3635 17.3225 64.352 17.9904C64.8501 18.3474 65.2459 18.827 65.5006 19.3821C65.7553 19.9372 65.8601 20.5486 65.8046 21.1561Z" fill="white"/>
<path d="M75.3953 13.6961C74.8043 13.6603 74.2127 13.7569 73.6644 13.9789C73.1161 14.2009 72.6251 14.5425 72.2278 14.9785C71.423 16.0422 71.0293 17.3575 71.1182 18.6851V26.2721H67.3926V5.72852H71.1182V13.7429C71.6025 12.7155 72.3846 11.855 73.3643 11.2718C74.4085 10.6835 75.5939 10.388 76.7941 10.4169C77.6468 10.3648 78.5009 10.4946 79.299 10.7975C80.097 11.1005 80.8205 11.5696 81.4208 12.1734C82.5103 13.3444 83.055 15.0029 83.055 17.149V26.2721H79.1747V18.2577C79.2657 17.0423 78.9281 15.8334 78.2197 14.8382C77.8679 14.4464 77.4305 14.1398 76.9409 13.9418C76.4513 13.7439 75.9226 13.6598 75.3953 13.6961Z" fill="white"/>
<path d="M93.6179 26.2719C90.8024 26.2719 88.6683 25.604 87.2157 24.2683C85.7632 22.9326 85.0369 21.0002 85.0369 18.4712V18.2709C84.9822 17.1915 85.1637 16.1131 85.5688 15.1101C85.974 14.107 86.5932 13.2031 87.3839 12.4604C88.953 11.0312 91.049 10.3188 93.6717 10.3233C96.2944 10.3277 98.3993 11.0357 99.9864 12.4471C100.773 13.1943 101.389 14.1015 101.79 15.1066C102.192 16.1117 102.37 17.191 102.313 18.2709V18.5046C102.313 20.9557 101.553 22.8591 100.027 24.2282C98.5002 25.5973 96.3684 26.2719 93.6179 26.2719ZM93.6717 22.9927C94.9472 23.0807 96.2062 22.6655 97.1754 21.8373C97.595 21.3917 97.9182 20.8656 98.1252 20.2913C98.3323 19.717 98.4187 19.1067 98.3792 18.4979V18.2709C98.4238 17.6311 98.3404 16.989 98.1338 16.3814C97.9272 15.7739 97.6015 15.213 97.1754 14.7312C96.1931 13.94 94.9667 13.5082 93.702 13.5082C92.4372 13.5082 91.2109 13.94 90.2285 14.7312C89.7976 15.2068 89.4668 15.7632 89.2555 16.3676C89.0441 16.9721 88.9565 17.6123 88.9979 18.2508V18.4579C88.9583 19.0666 89.0448 19.6769 89.2518 20.2512C89.4588 20.8255 89.7821 21.3517 90.2016 21.7972C91.1531 22.6367 92.4012 23.0666 93.6717 22.9927Z" fill="white"/>
<path d="M112.589 13.6426C111.995 13.6 111.399 13.692 110.845 13.9119C110.292 14.1317 109.796 14.4735 109.395 14.9115C108.596 15.9923 108.212 17.3211 108.312 18.6582V26.2719H104.398V10.724H107.7L108.043 13.9631C108.496 12.8567 109.28 11.9149 110.289 11.265C111.357 10.6175 112.59 10.2904 113.84 10.3233C114.709 10.2742 115.578 10.4097 116.39 10.7207C117.202 11.0316 117.937 11.5109 118.548 12.1265C119.74 13.5229 120.344 15.3215 120.236 17.1489V26.2719H116.342V18.1173C116.342 16.5767 116.037 15.4436 115.427 14.7178C115.066 14.339 114.623 14.0457 114.132 13.8596C113.64 13.6735 113.113 13.5993 112.589 13.6426Z" fill="white"/>
<path d="M130.76 26.2719C127.963 26.2719 125.837 25.604 124.385 24.2683C122.932 22.9326 122.206 21.0047 122.206 18.4846V18.2709C122.154 17.1937 122.336 16.1181 122.741 15.1176C123.147 14.117 123.764 13.2152 124.553 12.4738C126.118 11.0357 128.214 10.3188 130.841 10.3233C133.378 10.3233 135.382 10.8909 136.853 12.0263C137.598 12.62 138.208 13.3638 138.643 14.2088C139.078 15.0538 139.327 15.9807 139.375 16.9285H135.252V16.8817C135.157 15.8894 134.674 14.9736 133.907 14.3305C133.016 13.7245 131.946 13.4308 130.868 13.4956C130.237 13.4555 129.605 13.5444 129.01 13.757C128.416 13.9695 127.871 14.3011 127.411 14.7312C126.984 15.2085 126.656 15.7655 126.447 16.3697C126.238 16.9739 126.152 17.6133 126.194 18.2508V18.4579C126.154 19.0656 126.239 19.675 126.443 20.2491C126.648 20.8232 126.968 21.3499 127.384 21.7972C127.855 22.2062 128.403 22.5189 128.997 22.7171C129.59 22.9154 130.216 22.9954 130.841 22.9526C131.939 23.0211 133.029 22.72 133.934 22.0977C134.707 21.4338 135.189 20.4973 135.279 19.4864H139.375V19.5398C139.348 20.5005 139.114 21.4442 138.688 22.3072C138.262 23.1703 137.655 23.9324 136.907 24.5421C135.434 25.6975 133.39 26.2719 130.76 26.2719Z" fill="white"/>
<path d="M149.227 13.6961C148.636 13.6603 148.045 13.7569 147.496 13.9789C146.948 14.2009 146.457 14.5425 146.06 14.9785C145.255 16.0422 144.861 17.3575 144.95 18.6851V26.2721H141.225V5.72852H144.95V13.7429C145.434 12.7155 146.217 11.855 147.196 11.2718C148.24 10.6835 149.426 10.388 150.626 10.4169C151.479 10.3644 152.333 10.4939 153.131 10.7969C153.929 11.0999 154.653 11.5693 155.253 12.1734C156.342 13.3444 156.887 15.0029 156.887 17.149V26.2721H153.007V18.2577C153.096 17.0434 152.761 15.8357 152.059 14.8382C151.705 14.4471 151.266 14.141 150.775 13.9431C150.285 13.7452 149.756 13.6608 149.227 13.6961Z" fill="white"/>
<path d="M164.762 23.8077C164.784 24.1495 164.736 24.4922 164.62 24.8149C164.504 25.1376 164.324 25.4334 164.089 25.6844C163.531 26.1211 162.827 26.3312 162.119 26.2721C161.4 26.3467 160.679 26.1487 160.101 25.7178C159.88 25.4544 159.714 25.1497 159.614 24.8216C159.513 24.4935 159.48 24.1487 159.516 23.8077C159.485 23.47 159.523 23.1296 159.628 22.807C159.733 22.4844 159.903 22.1864 160.128 21.931C160.715 21.5436 161.404 21.3369 162.109 21.3369C162.813 21.3369 163.502 21.5436 164.089 21.931C164.323 22.1824 164.503 22.4783 164.619 22.8009C164.735 23.1234 164.783 23.466 164.762 23.8077Z" fill="white"/>
<path d="M182.804 26.165H179.502L179.159 22.6587C178.762 23.751 178.022 24.6875 177.048 25.3302C176.007 25.9631 174.804 26.281 173.584 26.2452C172.744 26.2984 171.902 26.1695 171.117 25.8673C170.332 25.5652 169.623 25.097 169.038 24.4953C167.98 23.3288 167.451 21.6569 167.451 19.4797V10.3232H171.358V18.5113C171.264 19.6774 171.582 20.8398 172.26 21.7972C172.639 22.1509 173.085 22.4262 173.573 22.6071C174.06 22.788 174.579 22.8709 175.099 22.851C175.619 22.8312 176.129 22.7089 176.601 22.4913C177.073 22.2737 177.497 21.9651 177.848 21.5835C178.587 20.5644 178.953 19.3246 178.884 18.0705V10.3232H182.818L182.804 26.165Z" fill="white"/>
<path d="M200 22.8858V26.165H184.701V23.1596L195.024 13.5156H185.286V10.3232H199.92V13.3954L189.906 22.8858H200Z" fill="white"/>
<path d="M12.8125 12.8682H15.563L14.6215 13.9902H13.754L12.8125 12.8682Z" fill="#3AC6FF"/>
<path d="M17.62 10.4238L16.6785 11.5458H11.6953L11.043 10.4238H17.62Z" fill="#3AC6FF"/>
<path d="M19.6837 7.97266L18.7422 9.09467H2.41406C2.60909 8.71399 2.81756 8.33998 3.04621 7.97266H19.6837Z" fill="#3AC6FF"/>
<path d="M21.7428 5.52832L20.8013 6.65033H3.96875C4.27138 6.25962 4.59463 5.88509 4.93714 5.52832H21.7428Z" fill="#3AC6FF"/>
<path d="M21.7821 1.76145H10.5312C14.1477 0.354256 18.1656 0.354256 21.7821 1.76145Z" fill="#3AC6FF"/>
<path d="M25.9531 4.206H6.36328C6.85412 3.79947 7.37077 3.42469 7.91002 3.08398H24.3996C24.9421 3.42301 25.4611 3.79786 25.9531 4.206Z" fill="#3AC6FF"/>
<path d="M14.2727 17.7568L14.1852 17.8632L14.0977 17.7568H14.2727Z" fill="#3AC6FF"/>
<path d="M14.7943 27.541C14.3934 27.6479 13.9712 27.6479 13.5703 27.541H14.7943Z" fill="#3AC6FF"/>
<path d="M2.81634 18.8788H1.0275C0.960249 18.5115 0.899725 18.1375 0.859375 17.7568H1.87484L2.81634 18.8788Z" fill="#3AC6FF"/>
<path d="M4.87435 21.3233H1.71362C1.57912 20.956 1.45135 20.5887 1.34375 20.208H3.93286L4.87435 21.3233Z" fill="#3AC6FF"/>
<path d="M6.941 23.7744H2.90603C2.69083 23.4093 2.48908 23.0353 2.30078 22.6523H5.99278L6.941 23.7744Z" fill="#3AC6FF"/>
<path d="M8.99222 26.2187H4.70843C4.38563 25.858 4.07628 25.484 3.78711 25.0967H8.0709L8.99222 26.2187Z" fill="#3AC6FF"/>
<path d="M11.1637 28.663H7.51877C7.00873 28.3174 6.51923 27.9428 6.05273 27.541H10.0877L10.4845 28.0152C10.6917 28.2501 10.919 28.4668 11.1637 28.663Z" fill="#3AC6FF"/>
<path d="M9.92578 29.9854H22.3871C20.4249 30.8484 18.3025 31.2942 16.1564 31.2942C14.0104 31.2942 11.888 30.8484 9.92578 29.9854Z" fill="#3AC6FF"/>
<path d="M18.2648 27.541H26.2608C25.7943 27.9428 25.3048 28.3174 24.7947 28.663H17.209C17.4518 28.4598 17.6768 28.2363 17.8815 27.9952L18.2648 27.541Z" fill="#3AC6FF"/>
<path d="M20.3243 25.0967H28.5355C28.2463 25.484 27.9369 25.858 27.6142 26.2187H19.3828L20.3243 25.0967Z" fill="#3AC6FF"/>
<path d="M22.3829 22.6523H30.0292C29.8409 23.0353 29.6391 23.4093 29.4239 23.7744H21.4414L22.3829 22.6523Z" fill="#3AC6FF"/>
<path d="M24.445 20.208H30.9682C30.8539 20.5887 30.7328 20.956 30.5983 21.3233H23.5371L24.445 20.208Z" fill="#3AC6FF"/>
<path d="M26.5029 17.7568H31.4525C31.4121 18.1375 31.3516 18.5115 31.2776 18.8788H25.5547L26.5029 17.7568Z" fill="#3AC6FF"/>
<path d="M31.4262 13.9902H29.6777L30.6192 12.8682H31.2312C31.3119 13.2355 31.3724 13.6095 31.4262 13.9902Z" fill="#3AC6FF"/>
<path d="M31.5532 16.0004C31.5532 16.1473 31.5532 16.2876 31.5532 16.4345H27.6191L28.5674 15.3125H31.5398C31.5465 15.5396 31.5532 15.7666 31.5532 16.0004Z" fill="#3AC6FF"/>
<path d="M14.2727 17.7568L14.1852 17.8632L14.0977 17.7568H14.2727Z" fill="#3AC6FF"/>
<path d="M14.7943 27.541C14.3934 27.6479 13.9712 27.6479 13.5703 27.541H14.7943Z" fill="#3AC6FF"/>
<path d="M33.2818 6.35664L30.9751 9.09488L30.3026 9.91636L29.8722 10.4239L28.9173 11.5459L27.8077 12.8817L26.8594 14.0037L25.7431 15.3394L24.8016 16.4614L23.6853 17.7972L22.7438 18.9192L21.6274 20.2549L20.6792 21.3702L19.5629 22.706L18.6214 23.828L17.505 25.1637L16.5636 26.2857L16.2139 26.6931C15.8425 27.117 15.3459 27.4138 14.7949 27.5413H13.5777C13.0215 27.392 12.5272 27.0717 12.1654 26.6264L11.8157 26.219L10.8742 25.0969L9.7579 23.7612L8.81641 22.6392L7.70007 21.3035L6.75857 20.1881L5.64223 18.8524L4.70746 17.7571L3.59112 16.4214L2.63618 15.3127L1.52656 13.977L0.988568 13.3091L0 12.3006H9.41493L10.9415 13.9903L12.0578 15.3261L12.9993 16.4481L14.1089 17.7838L14.1964 17.8907L14.2838 17.7838L15.4001 16.4481L16.3416 15.3261L17.458 13.9903L18.3995 12.8683L19.5158 11.5326L20.464 10.4106L21.5804 9.07485L22.5219 7.95283L23.6382 6.6171L23.887 6.32324L33.2818 6.35664Z" fill="#0191FF"/>
<path d="M14.7943 27.541C14.3934 27.6479 13.9712 27.6479 13.5703 27.541H14.7943Z" fill="#3AC6FF"/>
</g>
<defs>
<clipPath id="clip0_755_37905">
<rect width="200" height="30.5882" fill="white" transform="translate(0 0.706055)"/>
</clipPath>
</defs>
</svg>