<svg xmlns="http://www.w3.org/2000/svg" width="17" height="17" viewBox="0 0 17 17" fill="none">
<path d="M7.875 8.625V9.125H8.375H11.25V9.25H7.75V4.625H7.875V8.625ZM8.375 16C7.69197 16 7.03863 15.9119 6.41339 15.7372C5.78286 15.561 5.196 15.3125 4.65136 14.9923C4.10483 14.671 3.60822 14.2869 3.16068 13.8393C2.71315 13.3918 2.32901 12.8952 2.00768 12.3486C1.68747 11.804 1.43901 11.2171 1.2628 10.5866C1.08806 9.96137 1 9.30803 1 8.625C1 7.94197 1.08806 7.28863 1.2628 6.66339C1.43901 6.03286 1.68747 5.446 2.00768 4.90136C2.32901 4.35483 2.71315 3.85822 3.16068 3.41068C3.60822 2.96315 4.10483 2.57901 4.65136 2.25768C5.196 1.93747 5.78286 1.68901 6.41339 1.5128C7.03863 1.33806 7.69197 1.25 8.375 1.25C9.05803 1.25 9.71137 1.33806 10.3366 1.5128C10.9671 1.68901 11.554 1.93747 12.0986 2.25768C12.6452 2.57901 13.1418 2.96315 13.5893 3.41068C14.0369 3.85822 14.421 4.35483 14.7423 4.90136C15.0625 5.446 15.311 6.03286 15.4872 6.66339C15.6619 7.28863 15.75 7.94197 15.75 8.625C15.75 9.30803 15.6619 9.96137 15.4872 10.5866C15.311 11.2171 15.0625 11.804 14.7423 12.3486C14.421 12.8952 14.0369 13.3918 13.5893 13.8393C13.1418 14.2869 12.6452 14.671 12.0986 14.9923C11.554 15.3125 10.9671 15.561 10.3366 15.7372C9.71137 15.9119 9.05803 16 8.375 16ZM8.375 1.375C7.37811 1.375 6.43556 1.56506 5.55252 1.94802C4.67915 2.3268 3.91144 2.84532 3.25338 3.50338C2.59532 4.16144 2.0768 4.92915 1.69802 5.80252C1.31506 6.68556 1.125 7.62811 1.125 8.625C1.125 9.62189 1.31506 10.5644 1.69802 11.4475C2.0768 12.3209 2.59532 13.0886 3.25338 13.7466C3.91144 14.4047 4.67915 14.9232 5.55252 15.302C6.43556 15.6849 7.37811 15.875 8.375 15.875C9.37189 15.875 10.3144 15.6849 11.1975 15.302C12.0709 14.9232 12.8386 14.4047 13.4966 13.7466C14.1547 13.0886 14.6732 12.3209 15.052 11.4475C15.4349 10.5644 15.625 9.62189 15.625 8.625C15.625 7.62811 15.4349 6.68556 15.052 5.80252C14.6732 4.92915 14.1547 4.16144 13.4966 3.50338C12.8386 2.84532 12.0709 2.3268 11.1975 1.94802C10.3144 1.56506 9.37189 1.375 8.375 1.375Z" stroke="#888888"/>
</svg>