<svg xmlns="http://www.w3.org/2000/svg" width="114" height="114" viewBox="0 0 114 114" fill="none">
<circle cx="57" cy="57" r="48.5" stroke="#C02600"/>
<circle cx="57" cy="57" r="56.5" stroke="#C02600" stroke-opacity="0.24"/>
<path opacity="0.4" d="M57.0013 97.8346C79.5529 97.8346 97.8346 79.5529 97.8346 57.0013C97.8346 34.4497 79.5529 16.168 57.0013 16.168C34.4497 16.168 16.168 34.4497 16.168 57.0013C16.168 79.5529 34.4497 97.8346 57.0013 97.8346Z" fill="#C02600"/>
<path d="M61.3271 56.9987L70.7188 47.6071C71.9029 46.4229 71.9029 44.4629 70.7188 43.2788C69.5346 42.0946 67.5746 42.0946 66.3904 43.2788L56.9987 52.6704L47.6071 43.2788C46.4229 42.0946 44.4629 42.0946 43.2788 43.2788C42.0946 44.4629 42.0946 46.4229 43.2788 47.6071L52.6704 56.9987L43.2788 66.3904C42.0946 67.5746 42.0946 69.5346 43.2788 70.7188C43.8913 71.3312 44.6671 71.6171 45.4429 71.6171C46.2187 71.6171 46.9946 71.3312 47.6071 70.7188L56.9987 61.3271L66.3904 70.7188C67.0029 71.3312 67.7787 71.6171 68.5546 71.6171C69.3304 71.6171 70.1062 71.3312 70.7188 70.7188C71.9029 69.5346 71.9029 67.5746 70.7188 66.3904L61.3271 56.9987Z" fill="#C02600"/>
</svg>