<svg xmlns="http://www.w3.org/2000/svg" width="36" height="36" viewBox="0 0 36 36" fill="none">
<g clip-path="url(#clip0_295_11031)">
<path fill-rule="evenodd" clip-rule="evenodd" d="M18 31.05C25.2073 31.05 31.05 25.2073 31.05 18C31.05 10.7927 25.2073 4.95 18 4.95C10.7927 4.95 4.95 10.7927 4.95 18C4.95 25.2073 10.7927 31.05 18 31.05ZM31.5 18C31.5 25.4558 25.4558 31.5 18 31.5C10.5442 31.5 4.5 25.4558 4.5 18C4.5 10.5442 10.5442 4.5 18 4.5C25.4558 4.5 31.5 10.5442 31.5 18Z" fill="#FFF308" fill-opacity="0.2"/>
<path fill-rule="evenodd" clip-rule="evenodd" d="M17.925 29.25C24.1796 29.25 29.25 24.1796 29.25 17.925C29.25 11.6704 24.1796 6.6 17.925 6.6C11.6704 6.6 6.6 11.6704 6.6 17.925C6.6 24.1796 11.6704 29.25 17.925 29.25ZM29.85 17.925C29.85 24.511 24.511 29.85 17.925 29.85C11.339 29.85 6 24.511 6 17.925C6 11.339 11.339 6 17.925 6C24.511 6 29.85 11.339 29.85 17.925Z" fill="#FFF308" fill-opacity="0.6"/>
<path fill-rule="evenodd" clip-rule="evenodd" d="M17.9258 28.05C23.5177 28.05 28.0508 23.5169 28.0508 17.925C28.0508 12.3331 23.5177 7.79999 17.9258 7.79999C12.3339 7.79999 7.80078 12.3331 7.80078 17.925C7.80078 23.5169 12.3339 28.05 17.9258 28.05Z" fill="#FFF509"/>
</g>
<path d="M31.3716 13.7029C31.3739 13.6356 31.375 13.5679 31.375 13.5C31.375 10.1863 28.6831 7.5 25.3625 7.5C22.7284 7.5 20.4899 9.19042 19.6769 11.5435C19.0931 11.2395 18.4292 11.0676 17.725 11.0676C15.3916 11.0676 13.5 12.9552 13.5 15.2838C13.5 17.6123 15.3916 19.5 17.725 19.5L25.3706 19.5H29.9125C31.6177 19.5 33 18.1205 33 16.4189C33 15.244 32.341 14.2226 31.3716 13.7029Z" fill="#67BEFF"/>
<path d="M13.9979 24.3899C13.9993 24.3482 14 24.3063 14 24.2643C14 22.2129 12.3435 20.55 10.3 20.55C8.67899 20.55 7.30146 21.5964 6.80118 23.0531C6.44189 22.8649 6.03332 22.7585 5.6 22.7585C4.16406 22.7585 3 23.927 3 25.3685C3 26.81 4.16406 27.9786 5.6 27.9786L10.305 27.9786H13.1C14.1493 27.9786 15 27.1246 15 26.0712C15 25.3439 14.5944 24.7116 13.9979 24.3899Z" fill="#67BEFF"/>
<defs>
<clipPath id="clip0_295_11031">
<rect width="27" height="27" fill="white" transform="translate(4.5 4.5)"/>
</clipPath>
</defs>
</svg>