<svg xmlns="http://www.w3.org/2000/svg" width="200" height="32" viewBox="0 0 200 32" fill="none">
<g clip-path="url(#clip0_139_6202)">
<path d="M48.0756 7.11745V26.2718H44.1953V7.11745H48.0756Z" fill="#041769"/>
<path d="M65.8046 21.156C65.8206 21.899 65.6434 22.6337 65.2899 23.2888C64.9365 23.944 64.4189 24.4976 63.7871 24.896C62.4422 25.811 60.5995 26.2718 58.2391 26.2718C55.6612 26.2718 53.6706 25.8266 52.2673 24.9361C51.5716 24.4796 50.9865 23.8758 50.5539 23.1679C50.1213 22.46 49.8521 21.6656 49.7656 20.8421H54.0696C54.134 21.2181 54.2845 21.5745 54.5096 21.8837C54.7346 22.1929 55.0281 22.4466 55.3675 22.6253C56.3295 23.0456 57.3781 23.2333 58.4274 23.1729C59.346 23.2287 60.2655 23.0781 61.1173 22.7321C61.3856 22.6052 61.6103 22.4026 61.7634 22.1496C61.9165 21.8966 61.9912 21.6044 61.9781 21.3096C61.9749 21.0598 61.8907 20.8178 61.7381 20.6193C61.5855 20.4208 61.3725 20.2765 61.1308 20.2076C59.8353 19.8633 58.5037 19.6706 57.1631 19.6332C54.6614 19.4395 52.8995 18.9988 51.8907 18.2975C51.3933 17.961 50.992 17.5026 50.7257 16.9666C50.4594 16.4306 50.3372 15.8354 50.3709 15.2387C50.3492 14.5254 50.5114 13.8184 50.8421 13.1849C51.1729 12.5514 51.6611 12.0123 52.2606 11.6188C53.5204 10.7284 55.2689 10.2831 57.506 10.2831C59.8463 10.2831 61.6822 10.6972 63.0138 11.5253C63.6746 11.9447 64.2402 12.4962 64.6744 13.1448C65.1086 13.7933 65.402 14.5247 65.5356 15.2921H61.5007C61.4361 14.9568 61.2953 14.6405 61.089 14.3674C60.8827 14.0942 60.6164 13.8714 60.3103 13.7159C59.4296 13.3362 58.4714 13.1669 57.5128 13.2217C56.6591 13.1723 55.8054 13.3185 55.0178 13.6492C54.7653 13.7607 54.5515 13.9438 54.4031 14.1755C54.2548 14.4071 54.1786 14.677 54.1839 14.9515C54.1829 15.2064 54.2658 15.4546 54.42 15.6584C54.5741 15.8621 54.7912 16.0103 55.038 16.0802C56.293 16.4213 57.5841 16.6141 58.8847 16.6545C61.5746 16.8816 63.3635 17.3224 64.352 17.9903C64.8501 18.3473 65.2459 18.8269 65.5006 19.382C65.7553 19.9371 65.8601 20.5485 65.8046 21.156Z" fill="#041769"/>
<path d="M75.3953 13.6959C74.8043 13.6601 74.2127 13.7567 73.6644 13.9787C73.1161 14.2006 72.6251 14.5423 72.2278 14.9782C71.423 16.042 71.0293 17.3572 71.1182 18.6849V26.2718H67.3926V5.72829H71.1182V13.7427C71.6025 12.7152 72.3846 11.8548 73.3643 11.2716C74.4085 10.6832 75.5939 10.3877 76.7941 10.4167C77.6468 10.3646 78.5009 10.4943 79.299 10.7973C80.097 11.1003 80.8205 11.5694 81.4208 12.1732C82.5103 13.3442 83.055 15.0027 83.055 17.1488V26.2718H79.1747V18.2574C79.2657 17.0421 78.9281 15.8331 78.2197 14.838C77.8679 14.4462 77.4305 14.1395 76.9409 13.9416C76.4513 13.7436 75.9226 13.6596 75.3953 13.6959Z" fill="#041769"/>
<path d="M93.6179 26.2718C90.8024 26.2718 88.6683 25.6039 87.2157 24.2682C85.7632 22.9324 85.0369 21.0001 85.0369 18.4711V18.2707C84.9822 17.1913 85.1637 16.113 85.5688 15.1099C85.974 14.1069 86.5932 13.2029 87.3839 12.4603C88.953 11.0311 91.049 10.3187 93.6717 10.3231C96.2944 10.3276 98.3993 11.0355 99.9864 12.4469C100.773 13.1942 101.389 14.1014 101.79 15.1065C102.192 16.1116 102.37 17.1909 102.313 18.2707V18.5045C102.313 20.9555 101.553 22.859 100.027 24.2281C98.5002 25.5972 96.3684 26.2718 93.6179 26.2718ZM93.6717 22.9925C94.9472 23.0806 96.2062 22.6654 97.1754 21.8371C97.595 21.3916 97.9182 20.8655 98.1252 20.2912C98.3323 19.7169 98.4187 19.1065 98.3792 18.4978V18.2707C98.4238 17.631 98.3404 16.9888 98.1338 16.3813C97.9272 15.7737 97.6015 15.2129 97.1754 14.731C96.1931 13.9399 94.9667 13.5081 93.702 13.5081C92.4372 13.5081 91.2109 13.9399 90.2285 14.731C89.7976 15.2067 89.4668 15.7631 89.2555 16.3675C89.0441 16.9719 88.9565 17.6122 88.9979 18.2507V18.4577C88.9583 19.0665 89.0448 19.6768 89.2518 20.2511C89.4588 20.8254 89.7821 21.3515 90.2016 21.7971C91.1531 22.6365 92.4012 23.0665 93.6717 22.9925Z" fill="#041769"/>
<path d="M112.589 13.6424C111.995 13.5998 111.399 13.6919 110.845 13.9117C110.292 14.1315 109.796 14.4733 109.395 14.9113C108.596 15.9921 108.212 17.3209 108.312 18.6581V26.2717H104.398V10.7238H107.7L108.043 13.963C108.496 12.8565 109.28 11.9148 110.289 11.2648C111.357 10.6173 112.59 10.2903 113.84 10.3231C114.709 10.2741 115.578 10.4095 116.39 10.7205C117.202 11.0314 117.937 11.5107 118.548 12.1263C119.74 13.5227 120.344 15.3213 120.236 17.1487V26.2717H116.342V18.1171C116.342 16.5765 116.037 15.4434 115.427 14.7177C115.066 14.3388 114.623 14.0455 114.132 13.8594C113.64 13.6733 113.113 13.5991 112.589 13.6424Z" fill="#041769"/>
<path d="M130.76 26.2718C127.963 26.2718 125.837 25.604 124.385 24.2682C122.932 22.9325 122.206 21.0046 122.206 18.4845V18.2708C122.154 17.1937 122.336 16.118 122.741 15.1175C123.147 14.117 123.764 13.2151 124.553 12.4737C126.118 11.0356 128.214 10.3188 130.841 10.3232C133.378 10.3232 135.382 10.8909 136.853 12.0263C137.598 12.6199 138.208 13.3638 138.643 14.2088C139.078 15.0538 139.327 15.9807 139.375 16.9284H135.252V16.8817C135.157 15.8893 134.674 14.9736 133.907 14.3304C133.016 13.7245 131.946 13.4307 130.868 13.4956C130.237 13.4554 129.605 13.5444 129.01 13.7569C128.416 13.9694 127.871 14.301 127.411 14.7311C126.984 15.2085 126.656 15.7654 126.447 16.3696C126.238 16.9739 126.152 17.6133 126.194 18.2508V18.4578C126.154 19.0655 126.239 19.675 126.443 20.249C126.648 20.8231 126.968 21.3499 127.384 21.7971C127.855 22.2062 128.403 22.5188 128.997 22.7171C129.59 22.9154 130.216 22.9954 130.841 22.9526C131.939 23.0211 133.029 22.7199 133.934 22.0977C134.707 21.4337 135.189 20.4972 135.279 19.4863H139.375V19.5398C139.348 20.5004 139.114 21.4442 138.688 22.3072C138.262 23.1702 137.655 23.9323 136.907 24.5421C135.434 25.6975 133.39 26.2718 130.76 26.2718Z" fill="#041769"/>
<path d="M149.227 13.6959C148.636 13.66 148.045 13.7566 147.496 13.9786C146.948 14.2006 146.457 14.5422 146.06 14.9782C145.255 16.0419 144.861 17.3572 144.95 18.6848V26.2718H141.225V5.72823H144.95V13.7426C145.434 12.7152 146.217 11.8547 147.196 11.2715C148.24 10.6832 149.426 10.3877 150.626 10.4166C151.479 10.3641 152.333 10.4936 153.131 10.7966C153.929 11.0996 154.653 11.569 155.253 12.1731C156.342 13.3441 156.887 15.0027 156.887 17.1487V26.2718H153.007V18.2574C153.096 17.0431 152.761 15.8354 152.059 14.8379C151.705 14.4468 151.266 14.1407 150.775 13.9428C150.285 13.745 149.756 13.6605 149.227 13.6959Z" fill="#041769"/>
<path d="M164.762 23.8074C164.784 24.1492 164.736 24.4919 164.62 24.8146C164.504 25.1373 164.324 25.4332 164.089 25.6841C163.531 26.1208 162.827 26.3309 162.119 26.2718C161.4 26.3464 160.679 26.1484 160.101 25.7175C159.88 25.4541 159.714 25.1494 159.614 24.8213C159.513 24.4932 159.48 24.1484 159.516 23.8074C159.485 23.4697 159.523 23.1293 159.628 22.8067C159.733 22.4841 159.903 22.1861 160.128 21.9307C160.715 21.5433 161.404 21.3366 162.109 21.3366C162.813 21.3366 163.502 21.5433 164.089 21.9307C164.323 22.1821 164.503 22.478 164.619 22.8006C164.735 23.1232 164.783 23.4657 164.762 23.8074Z" fill="#041769"/>
<path d="M182.804 26.165H179.502L179.159 22.6587C178.762 23.751 178.022 24.6875 177.048 25.3301C176.007 25.963 174.804 26.281 173.584 26.2451C172.744 26.2984 171.902 26.1695 171.117 25.8673C170.332 25.5651 169.623 25.097 169.038 24.4953C167.98 23.3288 167.451 21.6569 167.451 19.4796V10.3232H171.358V18.5112C171.264 19.6774 171.582 20.8397 172.26 21.7971C172.639 22.1508 173.085 22.4261 173.573 22.607C174.06 22.788 174.579 22.8709 175.099 22.851C175.619 22.8311 176.129 22.7088 176.601 22.4912C177.073 22.2736 177.497 21.965 177.848 21.5834C178.587 20.5643 178.953 19.3245 178.884 18.0704V10.3232H182.818L182.804 26.165Z" fill="#041769"/>
<path d="M200 22.8857V26.1649H184.701V23.1595L195.024 13.5155H185.286V10.3231H199.92V13.3953L189.906 22.8857H200Z" fill="#041769"/>
<path d="M12.8125 12.8677H15.563L14.6215 13.9897H13.754L12.8125 12.8677Z" fill="#3AC6FF"/>
<path d="M17.62 10.4233L16.6785 11.5454H11.6953L11.043 10.4233H17.62Z" fill="#3AC6FF"/>
<path d="M19.6837 7.97224L18.7422 9.09426H2.41406C2.60909 8.71358 2.81756 8.33957 3.04621 7.97224H19.6837Z" fill="#3AC6FF"/>
<path d="M21.7428 5.52785L20.8013 6.64986H3.96875C4.27138 6.25915 4.59463 5.88462 4.93714 5.52785H21.7428Z" fill="#3AC6FF"/>
<path d="M21.7821 1.76116H10.5312C14.1477 0.353966 18.1656 0.353966 21.7821 1.76116Z" fill="#3AC6FF"/>
<path d="M25.9531 4.20553H6.36328C6.85412 3.799 7.37077 3.42422 7.91002 3.08351H24.3996C24.9421 3.42254 25.4611 3.79739 25.9531 4.20553Z" fill="#3AC6FF"/>
<path d="M14.2727 17.7565L14.1852 17.8629L14.0977 17.7565H14.2727Z" fill="#3AC6FF"/>
<path d="M14.7943 27.5407C14.3934 27.6475 13.9712 27.6475 13.5703 27.5407H14.7943Z" fill="#3AC6FF"/>
<path d="M2.81634 18.8785H1.0275C0.960249 18.5112 0.899725 18.1372 0.859375 17.7565H1.87484L2.81634 18.8785Z" fill="#3AC6FF"/>
<path d="M4.87435 21.3229H1.71362C1.57912 20.9555 1.45135 20.5882 1.34375 20.2075H3.93286L4.87435 21.3229Z" fill="#3AC6FF"/>
<path d="M6.941 23.774H2.90603C2.69083 23.4089 2.48908 23.0349 2.30078 22.652H5.99278L6.941 23.774Z" fill="#3AC6FF"/>
<path d="M8.99222 26.2183H4.70843C4.38563 25.8577 4.07628 25.4837 3.78711 25.0963H8.0709L8.99222 26.2183Z" fill="#3AC6FF"/>
<path d="M11.1637 28.6628H7.51877C7.00873 28.3172 6.51923 27.9425 6.05273 27.5408H10.0877L10.4845 28.015C10.6917 28.2499 10.919 28.4666 11.1637 28.6628Z" fill="#3AC6FF"/>
<path d="M9.92578 29.9851H22.3871C20.4249 30.8482 18.3025 31.294 16.1564 31.294C14.0104 31.294 11.888 30.8482 9.92578 29.9851Z" fill="#3AC6FF"/>
<path d="M18.2648 27.5407H26.2608C25.7943 27.9424 25.3048 28.317 24.7947 28.6627H17.209C17.4518 28.4594 17.6768 28.236 17.8815 27.9948L18.2648 27.5407Z" fill="#3AC6FF"/>
<path d="M20.3243 25.0964H28.5355C28.2463 25.4838 27.9369 25.8578 27.6142 26.2184H19.3828L20.3243 25.0964Z" fill="#3AC6FF"/>
<path d="M22.3829 22.652H30.0292C29.8409 23.0349 29.6391 23.4089 29.4239 23.774H21.4414L22.3829 22.652Z" fill="#3AC6FF"/>
<path d="M24.445 20.2075H30.9682C30.8539 20.5882 30.7328 20.9555 30.5983 21.3229H23.5371L24.445 20.2075Z" fill="#3AC6FF"/>
<path d="M26.5029 17.7565H31.4525C31.4121 18.1372 31.3516 18.5112 31.2776 18.8786H25.5547L26.5029 17.7565Z" fill="#3AC6FF"/>
<path d="M31.4262 13.9897H29.6777L30.6192 12.8677H31.2312C31.3119 13.235 31.3724 13.609 31.4262 13.9897Z" fill="#3AC6FF"/>
<path d="M31.5532 16.0001C31.5532 16.147 31.5532 16.2873 31.5532 16.4342H27.6191L28.5674 15.3122H31.5398C31.5465 15.5393 31.5532 15.7664 31.5532 16.0001Z" fill="#3AC6FF"/>
<path d="M14.2727 17.7565L14.1852 17.8629L14.0977 17.7565H14.2727Z" fill="#3AC6FF"/>
<path d="M14.7943 27.5407C14.3934 27.6475 13.9712 27.6475 13.5703 27.5407H14.7943Z" fill="#3AC6FF"/>
<path d="M33.2818 6.35604L30.9751 9.09429L30.3026 9.91576L29.8722 10.4233L28.9173 11.5454L27.8077 12.8811L26.8594 14.0031L25.7431 15.3388L24.8016 16.4608L23.6853 17.7966L22.7438 18.9186L21.6274 20.2543L20.6792 21.3697L19.5629 22.7054L18.6214 23.8274L17.505 25.1631L16.5636 26.2851L16.2139 26.6925C15.8425 27.1164 15.3459 27.4132 14.7949 27.5407H13.5777C13.0215 27.3914 12.5272 27.0711 12.1654 26.6258L11.8157 26.2184L10.8742 25.0963L9.7579 23.7606L8.81641 22.6386L7.70007 21.3029L6.75857 20.1875L5.64223 18.8518L4.70746 17.7565L3.59112 16.4208L2.63618 15.3121L1.52656 13.9764L0.988568 13.3085L0 12.3H9.41493L10.9415 13.9897L12.0578 15.3255L12.9993 16.4475L14.1089 17.7832L14.1964 17.8901L14.2838 17.7832L15.4001 16.4475L16.3416 15.3255L17.458 13.9897L18.3995 12.8677L19.5158 11.532L20.464 10.41L21.5804 9.07425L22.5219 7.95224L23.6382 6.61651L23.887 6.32265L33.2818 6.35604Z" fill="#0191FF"/>
<path d="M14.7943 27.5407C14.3934 27.6475 13.9712 27.6475 13.5703 27.5407H14.7943Z" fill="#3AC6FF"/>
</g>
<defs>
<clipPath id="clip0_139_6202">
<rect width="200" height="30.5882" fill="white" transform="translate(0 0.705887)"/>
</clipPath>
</defs>
</svg>