<svg xmlns="http://www.w3.org/2000/svg" width="25" height="25" viewBox="0 0 25 25" fill="none">
<path d="M10.834 0.333328C16.63 0.333328 21.334 5.03733 21.334 10.8333C21.334 16.6293 16.63 21.3333 10.834 21.3333C5.03798 21.3333 0.333984 16.6293 0.333984 10.8333C0.333984 5.03733 5.03798 0.333328 10.834 0.333328ZM10.834 19C15.3455 19 19.0007 15.3448 19.0007 10.8333C19.0007 6.32066 15.3455 2.66666 10.834 2.66666C6.32132 2.66666 2.66732 6.32066 2.66732 10.8333C2.66732 15.3448 6.32132 19 10.834 19ZM18.6588 17.0085L24.0336 22.3822L22.3828 24.033L17.0091 18.6582L17.834 17.8333L18.6588 17.0085Z" fill="#6974A5"/>
</svg>