<svg xmlns="http://www.w3.org/2000/svg" width="114" height="114" viewBox="0 0 114 114" fill="none">
<path opacity="0.4" d="M57.0013 97.8346C79.5529 97.8346 97.8346 79.5529 97.8346 57.0013C97.8346 34.4497 79.5529 16.168 57.0013 16.168C34.4497 16.168 16.168 34.4497 16.168 57.0013C16.168 79.5529 34.4497 97.8346 57.0013 97.8346Z" fill="#00C008"/>
<path d="M51.2019 71.6189C50.3852 71.6189 49.6094 71.2922 49.0377 70.7205L37.4819 59.1647C36.2977 57.9805 36.2977 56.0205 37.4819 54.8364C38.666 53.6522 40.626 53.6522 41.8102 54.8364L51.2019 64.228L72.1902 43.2397C73.3744 42.0555 75.3344 42.0555 76.5185 43.2397C77.7027 44.4239 77.7027 46.3839 76.5185 47.568L53.366 70.7205C52.7944 71.2922 52.0185 71.6189 51.2019 71.6189Z" fill="#00C008"/>
<circle cx="57" cy="57" r="48.5" stroke="#00C008"/>
<circle cx="57" cy="57" r="56.5" stroke="#00C008" stroke-opacity="0.24"/>
</svg>