<svg xmlns="http://www.w3.org/2000/svg" width="21" height="20" viewBox="0 0 21 20" fill="none">
<path d="M9.99945 4.98955C7.23732 4.98955 4.99023 7.23707 4.99023 9.9992C4.99023 12.7613 7.23732 15.0089 9.99945 15.0089C12.7611 15.0089 15.0087 12.7618 15.0087 9.9992C15.0087 7.23663 12.7611 4.98955 9.99945 4.98955Z" fill="#0192FF"/>
<path d="M9.99693 3.5181C9.45708 3.5181 9.01953 3.08055 9.01953 2.54114V0.977397C9.01953 0.437548 9.45708 0 9.99693 0C10.5368 0 10.9743 0.437548 10.9743 0.977397V2.54114C10.9743 3.08055 10.5363 3.5181 9.99693 3.5181Z" fill="#0192FF"/>
<path d="M9.99693 16.4815C9.45708 16.4815 9.01953 16.919 9.01953 17.4589V19.0222C9.01953 19.5625 9.45708 20 9.99693 20C10.5368 20 10.9743 19.5625 10.9743 19.0222V17.4589C10.9743 16.919 10.5363 16.4815 9.99693 16.4815Z" fill="#0192FF"/>
<path d="M14.5789 5.41854C14.1976 5.03679 14.1976 4.41811 14.5789 4.03637L15.6848 2.93054C16.0661 2.54924 16.6852 2.54924 17.0669 2.93054C17.4487 3.31229 17.4487 3.93141 17.0669 4.31271L15.9611 5.41854C15.5798 5.80029 14.9611 5.80029 14.5789 5.41854Z" fill="#0192FF"/>
<path d="M5.41282 14.5833C5.03107 14.2011 4.41239 14.2011 4.03064 14.5833L2.92482 15.6887C2.54351 16.07 2.54307 16.6896 2.92482 17.0709C3.30656 17.4522 3.92568 17.4522 4.30699 17.0709L5.41282 15.9646C5.79456 15.5833 5.79456 14.9642 5.41282 14.5833Z" fill="#0192FF"/>
<path d="M16.4844 10.0007C16.4844 9.46082 16.9219 9.02327 17.4618 9.02327H19.0255C19.5654 9.02327 20.0029 9.46082 20.0029 10.0007C20.0029 10.5405 19.5654 10.9776 19.0255 10.9776H17.4618C16.9219 10.9776 16.4844 10.5405 16.4844 10.0007Z" fill="#0192FF"/>
<path d="M3.5181 10.0007C3.5181 9.46082 3.08055 9.02327 2.5407 9.02327H0.977397C0.437548 9.02327 0 9.46082 0 10.0007C0 10.5405 0.437548 10.9776 0.977397 10.9776H2.54114C3.08055 10.9776 3.5181 10.5405 3.5181 10.0007Z" fill="#0192FF"/>
<path d="M14.5793 14.5826C14.961 14.2013 15.5801 14.2013 15.9615 14.5826L17.0673 15.6885C17.449 16.0693 17.449 16.6889 17.0673 17.0702C16.6855 17.4515 16.0669 17.4515 15.6851 17.0702L14.5793 15.9644C14.1975 15.5826 14.1975 14.9639 14.5793 14.5826Z" fill="#0192FF"/>
<path d="M5.41298 5.41842C5.79473 5.03667 5.79473 4.41799 5.41298 4.03624L4.30716 2.93086C3.92541 2.54911 3.30673 2.54911 2.92498 2.93086C2.54324 3.31216 2.54324 3.93128 2.92498 4.31259L4.03081 5.41842C4.41256 5.80061 5.03123 5.80061 5.41298 5.41842Z" fill="#0192FF"/>
</svg>