<svg xmlns="http://www.w3.org/2000/svg" width="24" height="19" viewBox="0 0 24 19" fill="none">
<path d="M2.03604 8.33176C2.03604 8.33176 12.1448 4.18313 15.6506 2.7223C16.9946 2.13802 21.5523 0.268145 21.5523 0.268145C21.5523 0.268145 23.6559 -0.549854 23.4805 1.43679C23.4221 2.25487 22.9546 5.11799 22.4872 8.2149C21.786 12.5973 21.0264 17.3887 21.0264 17.3887C21.0264 17.3887 20.9095 18.7327 19.9162 18.9664C18.9229 19.2001 17.2867 18.1484 16.9946 17.9146C16.7608 17.7393 12.6122 15.1099 11.093 13.8244C10.6839 13.4738 10.2165 12.7726 11.1514 11.9546C13.2549 10.0263 15.7675 7.63062 17.2867 6.1114C17.9879 5.41017 18.6891 3.77409 15.7675 5.76074C11.6189 8.62394 7.52864 11.3118 7.52864 11.3118C7.52864 11.3118 6.5937 11.8961 4.84077 11.3702C3.08775 10.8444 1.04263 10.1432 1.04263 10.1432C1.04263 10.1432 -0.359652 9.26669 2.03604 8.33176Z" fill="#34A8FF"/>
</svg>