<svg xmlns="http://www.w3.org/2000/svg" width="29" height="26" viewBox="0 0 29 26" fill="none">
<path d="M10.8906 10.3376H13.2286L12.4283 11.2914H11.6909L10.8906 10.3376Z" fill="#3AC6FF"/>
<path d="M14.9772 8.25989L14.1769 9.2136H9.94119L9.38672 8.25989H14.9772Z" fill="#3AC6FF"/>
<path d="M16.73 6.17651L15.9297 7.13023H2.05078C2.21655 6.80664 2.39375 6.48874 2.5881 6.17651H16.73Z" fill="#3AC6FF"/>
<path d="M18.479 4.09875L17.6788 5.05247H3.37109C3.62833 4.72036 3.90309 4.40201 4.19423 4.09875H18.479Z" fill="#3AC6FF"/>
<path d="M18.5163 0.897087H8.95312C12.0271 -0.299029 15.4424 -0.299029 18.5163 0.897087Z" fill="#3AC6FF"/>
<path d="M22.0576 2.97483H5.40625C5.82347 2.62928 6.26261 2.31072 6.72098 2.02112H20.7371C21.1983 2.30929 21.6394 2.62792 22.0576 2.97483Z" fill="#3AC6FF"/>
<path d="M12.13 14.4932L12.0552 14.584L11.9805 14.4932H12.13Z" fill="#3AC6FF"/>
<path d="M12.5755 22.8097C12.2348 22.9005 11.8759 22.9005 11.5352 22.8097H12.5755Z" fill="#3AC6FF"/>
<path d="M2.39389 15.4469H0.873374C0.816212 15.1346 0.764766 14.8167 0.730469 14.4932H1.59362L2.39389 15.4469Z" fill="#3AC6FF"/>
<path d="M4.14554 17.5246H1.45892C1.3446 17.2123 1.23599 16.9001 1.14453 16.5765H3.34527L4.14554 17.5246Z" fill="#3AC6FF"/>
<path d="M5.89731 19.608H2.46758C2.28467 19.2977 2.11318 18.9798 1.95312 18.6543H5.09132L5.89731 19.608Z" fill="#3AC6FF"/>
<path d="M7.64309 21.6858H4.00187C3.72749 21.3792 3.46455 21.0613 3.21875 20.7321H6.85997L7.64309 21.6858Z" fill="#3AC6FF"/>
<path d="M9.48885 23.7634H6.39066C5.95713 23.4696 5.54105 23.1512 5.14453 22.8097H8.57426L8.91151 23.2127C9.08769 23.4124 9.28085 23.5966 9.48885 23.7634Z" fill="#3AC6FF"/>
<path d="M8.4375 24.8875H19.0296C17.3617 25.621 15.5577 26 13.7336 26C11.9094 26 10.1054 25.621 8.4375 24.8875Z" fill="#3AC6FF"/>
<path d="M15.5264 22.8097H22.3229C21.9264 23.1512 21.5103 23.4696 21.0768 23.7634H14.6289C14.8353 23.5906 15.0266 23.4007 15.2005 23.1957L15.5264 22.8097Z" fill="#3AC6FF"/>
<path d="M17.2729 20.7321H24.2524C24.0066 21.0613 23.7437 21.3792 23.4693 21.6858H16.4727L17.2729 20.7321Z" fill="#3AC6FF"/>
<path d="M19.0229 18.6543H25.5223C25.3622 18.9798 25.1907 19.2977 25.0078 19.608H18.2227L19.0229 18.6543Z" fill="#3AC6FF"/>
<path d="M20.7795 16.5765H26.3242C26.227 16.9001 26.1242 17.2123 26.0098 17.5246H20.0078L20.7795 16.5765Z" fill="#3AC6FF"/>
<path d="M22.5286 14.4932H26.7358C26.7015 14.8167 26.65 15.1346 26.5871 15.4469H21.7227L22.5286 14.4932Z" fill="#3AC6FF"/>
<path d="M26.7128 11.2914H25.2266L26.0268 10.3376H26.547C26.6156 10.6499 26.667 10.9678 26.7128 11.2914Z" fill="#3AC6FF"/>
<path d="M26.8205 13.0001C26.8205 13.125 26.8205 13.2442 26.8205 13.3691H23.4766L24.2825 12.4154H26.8091C26.8148 12.6084 26.8205 12.8014 26.8205 13.0001Z" fill="#3AC6FF"/>
<path d="M12.13 14.4932L12.0552 14.584L11.9805 14.4932H12.13Z" fill="#3AC6FF"/>
<path d="M12.5755 22.8097C12.2348 22.9005 11.8759 22.9005 11.5352 22.8097H12.5755Z" fill="#3AC6FF"/>
<path d="M28.2895 4.80268L26.3288 7.13019L25.7572 7.82844L25.3914 8.25988L24.5797 9.21359L23.6365 10.349L22.8305 11.3027L21.8816 12.438L21.0814 13.3918L20.1325 14.5271L19.3322 15.4808L18.3833 16.6162L17.5773 17.5642L16.6284 18.6996L15.8282 19.6533L14.8793 20.7887L14.079 21.7424L13.7818 22.0887C13.4661 22.449 13.044 22.7013 12.5757 22.8097H11.541C11.0683 22.6827 10.6481 22.4105 10.3406 22.0319L10.0434 21.6856L9.24311 20.7319L8.29422 19.5966L7.49395 18.6429L6.54506 17.5075L5.74479 16.5594L4.7959 15.4241L4.00134 14.4931L3.05245 13.3577L2.24075 12.4153L1.29758 11.28L0.840282 10.7123L0 9.85508H8.00269L9.30027 11.2913L10.2492 12.4267L11.0494 13.3804L11.9926 14.5158L12.0669 14.6066L12.1412 14.5158L13.0901 13.3804L13.8904 12.4267L14.8393 11.2913L15.6395 10.3376L16.5884 9.20224L17.3944 8.24853L18.3433 7.11316L19.1436 6.15945L20.0925 5.02407L20.304 4.77429L28.2895 4.80268Z" fill="#0191FF"/>
<path d="M12.5755 22.8097C12.2348 22.9005 11.8759 22.9005 11.5352 22.8097H12.5755Z" fill="#3AC6FF"/>
</svg>