<svg xmlns="http://www.w3.org/2000/svg" width="36" height="29" viewBox="0 0 36 29" fill="none">
<path d="M35.9982 3.88326C34.6499 4.46397 33.2201 4.84534 31.7561 5.01477C33.2992 4.11615 34.4542 2.70191 35.0057 1.03557C33.5575 1.87475 31.9698 2.46286 30.315 2.78099C29.2034 1.62296 27.73 0.854952 26.1239 0.596358C24.5178 0.337765 22.869 0.603076 21.4338 1.35104C19.9985 2.09901 18.8572 3.28773 18.1874 4.7324C17.5176 6.17706 17.3567 7.79673 17.7298 9.33961C14.793 9.19628 11.9199 8.45318 9.29721 7.15855C6.67449 5.86392 4.3607 4.04671 2.50608 1.82488C1.84961 2.92277 1.50463 4.17083 1.50648 5.44123C1.50648 7.93468 2.80985 10.1375 4.7914 11.4272C3.61874 11.3913 2.47188 11.0829 1.44643 10.5279V10.6173C1.44678 12.2779 2.03696 13.8873 3.11688 15.1727C4.19681 16.458 5.70003 17.3401 7.37166 17.6694C6.28307 17.9567 5.14163 17.999 4.03375 17.7932C4.50506 19.2226 5.42368 20.4728 6.66097 21.3685C7.89827 22.2643 9.3923 22.7609 10.9339 22.7887C9.40175 23.9604 7.64749 24.8265 5.77137 25.3375C3.89526 25.8486 1.93409 25.9945 0 25.7671C3.37623 27.8813 7.30649 29.0036 11.3206 29C24.9072 29 32.3371 18.0409 32.3371 8.53655C32.3371 8.22702 32.3283 7.91404 32.3142 7.60795C33.7604 6.59023 35.0085 5.32949 36 3.88498L35.9982 3.88326Z" fill="#9BA2C3"/>
</svg>