<svg xmlns="http://www.w3.org/2000/svg" width="28" height="32" viewBox="0 0 28 32" fill="none">
<path d="M24.6755 21.9957C25.5066 22.3695 26.153 22.8582 26.6148 23.4619C27.0765 24.0656 27.3997 24.698 27.5844 25.3592C27.7691 26.0204 27.8923 26.6385 27.9538 27.2135C28.0154 27.7884 28.0154 28.234 27.9538 28.5503C27.8923 28.8665 27.7691 29.0965 27.5844 29.2402C27.1535 29.5852 26.6302 29.887 26.0145 30.1458C25.3989 30.4045 24.7216 30.6345 23.9829 30.8357C23.2441 31.0369 22.4899 31.1951 21.7203 31.3101L19.4578 31.655C17.7339 31.8563 15.9178 31.9713 14.0092 32C12.0699 31.9713 10.2383 31.8563 8.51451 31.655C7.77573 31.5688 7.02155 31.4538 6.25198 31.3101C5.48241 31.1663 4.74362 31.0082 4.03562 30.8357C3.32762 30.6632 2.6504 30.4332 2.00396 30.1458C1.35752 29.8583 0.818821 29.5564 0.387863 29.2402C0.203166 29.0965 0.0877309 28.8737 0.0415567 28.5718C-0.00461741 28.27 -0.0123131 27.8172 0.0184697 27.2135C0.0492524 26.6098 0.172383 25.9917 0.387863 25.3592C0.603342 24.7268 0.926561 24.0943 1.35752 23.4619C1.78848 22.8294 2.43492 22.3407 3.29683 21.9957L6.15963 20.7883C7.05233 20.4146 7.85268 20.0121 8.56069 19.5809C9.26869 19.1497 9.80739 18.6466 10.1768 18.0716C10.5462 17.4967 10.7463 16.8067 10.777 16.0018V15.7431C10.2537 15.3406 9.86895 14.8663 9.62269 14.32L8.56069 11.9915C8.0066 11.4165 7.59103 10.8847 7.31398 10.396C7.06772 9.99349 6.94459 9.61977 6.94459 9.27479C6.94459 8.92982 7.20624 8.75733 7.72955 8.75733C7.54486 7.66491 7.49868 6.68748 7.59103 5.82504C7.65259 5.10634 7.83729 4.44514 8.14512 3.84144C8.45295 3.23773 9.00704 2.93588 9.80739 2.93588C9.9613 2.38967 10.223 1.90095 10.5923 1.46974C10.931 1.09601 11.4081 0.751039 12.0237 0.434812C12.6394 0.118585 13.4551 -0.0251544 14.471 0.00359349C15.3945 0.00359349 16.1486 0.190455 16.7335 0.564177C17.3184 0.9379 17.8263 1.36912 18.2573 1.85783C18.6882 2.34655 19.0422 2.82089 19.3193 3.28085C19.5963 3.74082 19.9041 4.07142 20.2427 4.27266C20.3659 4.33015 20.4736 4.40202 20.566 4.48827C20.6583 4.57451 20.6583 4.6895 20.566 4.83324C20.4428 5.23571 20.3197 5.82504 20.1966 6.60124C20.0734 7.37743 20.0888 8.09613 20.2427 8.75733C20.7968 8.78608 21.0585 8.95856 21.0277 9.27479C20.9969 9.59102 20.843 9.96474 20.566 10.396C20.2581 10.8847 19.8272 11.4165 19.2731 11.9915C19.0576 12.5089 18.8883 12.9545 18.7652 13.3282C18.642 13.702 18.5035 14.0469 18.3496 14.3632C18.1957 14.6794 18.0418 14.9238 17.8879 15.0962C17.7339 15.2687 17.5031 15.4843 17.1953 15.7431V16.0018C17.1953 16.8355 17.3953 17.5254 17.7955 18.0716C18.1957 18.6179 18.7498 19.1209 19.4578 19.5809C20.1658 20.0409 20.9507 20.4433 21.8127 20.7883C22.6746 21.1333 23.6288 21.5358 24.6755 21.9957Z" fill="#6974A5"/>
</svg>