<svg xmlns="http://www.w3.org/2000/svg" width="18" height="14" viewBox="0 0 18 14" fill="none">
<path d="M1.2277 6.83752C0.908036 7.03359 0.908107 7.03371 0.908191 7.03384L0.908421 7.03422L0.909106 7.03533L0.911377 7.039L0.919499 7.05202C0.926496 7.06318 0.93665 7.07925 0.949899 7.09991C0.976396 7.14122 1.01529 7.20089 1.06607 7.2763C1.16761 7.42708 1.31688 7.64104 1.50988 7.89719C1.89544 8.40886 2.45794 9.09206 3.16578 9.77701C4.57022 11.1361 6.60306 12.5561 8.9988 12.5649H9.00017H9.0191C11.4112 12.5649 13.44 11.1438 14.8409 9.78266C15.547 9.09657 16.108 8.41174 16.4926 7.89875C16.6851 7.64194 16.8339 7.42738 16.9352 7.27617C16.9858 7.20055 17.0246 7.1407 17.0511 7.09927C17.0643 7.07855 17.0744 7.06243 17.0814 7.05124L17.0895 7.03818L17.0917 7.0345L17.0924 7.03338L17.0926 7.03301C17.0927 7.03287 17.0928 7.03276 16.7726 6.83752M1.2277 6.83752C0.907767 6.6419 0.907838 6.64178 0.907922 6.64165L0.908152 6.64127L0.908837 6.64015L0.911107 6.63647L0.919227 6.62341C0.926224 6.61222 0.936377 6.5961 0.949626 6.57538C0.97612 6.53395 1.01501 6.47411 1.06579 6.39848C1.16733 6.24727 1.3166 6.03272 1.50961 5.77591C1.89516 5.26293 2.45768 4.57812 3.16557 3.89206C4.57001 2.53092 6.60345 1.11016 9.00017 1.11016C11.3969 1.11016 13.4303 2.53092 14.8348 3.89206C15.5426 4.57812 16.1052 5.26293 16.4907 5.77592C16.6837 6.03272 16.833 6.24727 16.9345 6.39848C16.9853 6.47411 17.0242 6.53395 17.0507 6.57539C17.0639 6.5961 17.0741 6.61222 17.0811 6.62342L17.0892 6.63647L17.0915 6.64016L17.0922 6.64127L17.0924 6.64165C17.0925 6.64178 17.0926 6.6419 16.7726 6.83752M1.2277 6.83752L0.908036 7.03359L0.787964 6.83783L0.907767 6.6419L1.2277 6.83752ZM16.7726 6.83752L17.0926 6.6419L17.212 6.83725L17.0928 7.03276L16.7726 6.83752ZM9.00201 9.27112C8.52025 9.27409 8.0484 9.13401 7.6463 8.86859C7.24404 8.60305 6.92972 8.22403 6.74314 7.77965C6.55656 7.33525 6.50613 6.84546 6.59827 6.37236C6.6904 5.89927 6.92093 5.4642 7.26065 5.12229C7.60036 4.78039 8.03397 4.54704 8.50647 4.45187C8.97895 4.3567 9.46905 4.40396 9.91464 4.58769C10.3602 4.77142 10.7413 5.08336 11.0093 5.48388C11.2774 5.88429 11.4205 6.35522 11.4206 6.83703M9.00201 9.27112C9.64545 9.26878 10.2616 9.01105 10.7151 8.55462C11.1686 8.0982 11.4224 7.48043 11.4206 6.83703M9.00201 9.27112C9.00183 9.27112 9.00164 9.27112 9.00145 9.27112L9.00017 8.89613L9.00257 9.27112C9.00239 9.27112 9.0022 9.27112 9.00201 9.27112ZM11.4206 6.83703C11.4206 6.83682 11.4206 6.83661 11.4206 6.83639L11.0456 6.83752L11.4206 6.83752C11.4206 6.83736 11.4206 6.83719 11.4206 6.83703ZM0.502407 6.38659L0.502479 6.38647C0.56807 6.27897 1.47065 4.82509 2.9814 3.40249C4.49791 1.97448 6.57676 0.625 9.00017 0.625C11.4236 0.625 13.5023 1.97447 15.0187 3.40248C16.5294 4.82508 17.4318 6.27896 17.4974 6.38647C17.58 6.52233 17.6235 6.67828 17.6233 6.83723C17.623 6.99633 17.5789 7.15228 17.4957 7.28799L17.4951 7.28897C17.4297 7.39644 16.5295 8.85029 15.0222 10.2728C13.5091 11.7008 11.4348 13.05 9.01623 13.05H8.99378C6.57277 13.042 4.49538 11.6922 2.97991 10.2668C1.47586 8.85204 0.574548 7.40874 0.501756 7.29152C0.418854 7.15532 0.375 6.99898 0.375 6.83958C0.375 6.67977 0.419083 6.52303 0.502407 6.38659ZM8.99774 3.91876L8.99848 3.91876C9.76958 3.92223 10.5078 4.23138 11.0513 4.77841C11.5947 5.32543 11.8991 6.06567 11.8975 6.83677V6.83752C11.8975 7.41559 11.7258 7.98067 11.4043 8.46106C11.0827 8.94145 10.6257 9.31552 10.0913 9.53587C9.55685 9.75621 8.96902 9.8129 8.40232 9.69874C7.83563 9.58457 7.31559 9.30468 6.90816 8.89458C6.50073 8.48448 6.22425 7.96263 6.11378 7.3952C6.00331 6.82778 6.06382 6.24035 6.28765 5.70735C6.51148 5.17436 6.88853 4.71982 7.37101 4.4014C7.85348 4.08298 8.41966 3.915 8.99774 3.91876Z" stroke="#888888" stroke-width="0.75"/>
</svg>