<svg width="24" height="24" viewBox="0 0 24 24" fill="none" xmlns="http://www.w3.org/2000/svg">
<path d="M15.5714 5.71429C15.5714 4.74286 14.8286 4 13.8571 4H10.4286C9.45714 4 8.71429 4.74286 8.71429 5.71429V6.28571H3V11.9429L3.57143 12V20H20.7143V12L21.2857 11.9429V6.28571H15.5714V5.71429ZM9.85714 5.71429C9.85714 5.37143 10.0857 5.14286 10.4286 5.14286H13.8571C14.2 5.14286 14.4286 5.37143 14.4286 5.71429V6.28571H9.85714V5.71429ZM19.5714 18.8571H4.71429V12.1714L11.5714 13.0857V14.2857H12.7143V13.0857L19.5714 12.1714V18.8571ZM20.1429 7.42857V10.9143L12.7143 11.8857V10.8H11.5714V11.8857L4.14286 10.9143V7.42857H20.1429Z" fill="#6974A5"/>
</svg>
