<svg width="149" height="23" viewBox="0 0 149 23" fill="none" xmlns="http://www.w3.org/2000/svg">
<g clip-path="url(#clip0_747_32971)">
<path d="M35.8161 4.77637V19.0464H32.9253V4.77637H35.8161Z" fill="#041769"/>
<path d="M49.0243 15.236C49.0362 15.7896 48.9041 16.3369 48.6408 16.825C48.3775 17.3131 47.9919 17.7255 47.5212 18.0223C46.5192 18.704 45.1464 19.0473 43.3879 19.0473C41.4674 19.0473 39.9844 18.7156 38.9389 18.0522C38.4207 17.7122 37.9847 17.2623 37.6625 16.7349C37.3402 16.2075 37.1396 15.6157 37.0752 15.0022H40.2817C40.3296 15.2823 40.4418 15.5478 40.6094 15.7782C40.7771 16.0085 40.9958 16.1975 41.2486 16.3306C41.9653 16.6438 42.7465 16.7836 43.5282 16.7386C44.2126 16.7802 44.8976 16.668 45.5322 16.4103C45.7321 16.3157 45.8995 16.1647 46.0136 15.9763C46.1276 15.7878 46.1832 15.5701 46.1735 15.3505C46.1711 15.1644 46.1084 14.9841 45.9947 14.8362C45.881 14.6884 45.7223 14.5808 45.5422 14.5295C44.5771 14.273 43.585 14.1294 42.5863 14.1016C40.7225 13.9573 39.4099 13.6289 38.6584 13.1065C38.2878 12.8558 37.9889 12.5142 37.7905 12.1149C37.5921 11.7156 37.501 11.2722 37.5261 10.8276C37.5099 10.2962 37.6308 9.76956 37.8772 9.29758C38.1236 8.82561 38.4873 8.42399 38.9339 8.13086C39.8725 7.46745 41.1751 7.13574 42.8418 7.13574C44.5853 7.13574 45.9531 7.44423 46.9451 8.0612C47.4374 8.3736 47.8588 8.7845 48.1823 9.26768C48.5057 9.75086 48.7243 10.2957 48.8239 10.8674H45.8178C45.7697 10.6176 45.6648 10.382 45.5111 10.1785C45.3574 9.97501 45.159 9.80903 44.931 9.6932C44.2748 9.41031 43.561 9.2842 42.8468 9.325C42.2108 9.28818 41.5749 9.39713 40.9881 9.64344C40.7999 9.72658 40.6406 9.86296 40.5301 10.0355C40.4196 10.2081 40.3628 10.4092 40.3668 10.6137C40.366 10.8036 40.4278 10.9885 40.5427 11.1403C40.6575 11.2921 40.8192 11.4025 41.0031 11.4546C41.9381 11.7087 42.9 11.8523 43.8689 11.8825C45.8729 12.0516 47.2056 12.38 47.9421 12.8776C48.3131 13.1436 48.608 13.5009 48.7978 13.9144C48.9875 14.328 49.0656 14.7834 49.0243 15.236Z" fill="#041769"/>
<path d="M56.1693 9.6771C55.729 9.65039 55.2883 9.72238 54.8798 9.88775C54.4713 10.0531 54.1055 10.3076 53.8095 10.6324C53.2099 11.4249 52.9166 12.4048 52.9829 13.3939V19.0461H50.2073V3.74121H52.9829V9.71193C53.3436 8.9465 53.9263 8.30546 54.6562 7.87096C55.4341 7.43265 56.3173 7.21251 57.2114 7.23408C57.8467 7.19523 58.483 7.29192 59.0776 7.51763C59.6721 7.74334 60.2111 8.09285 60.6583 8.54266C61.47 9.41505 61.8758 10.6507 61.8758 12.2495V19.0461H58.985V13.0754C59.0528 12.17 58.8012 11.2693 58.2735 10.5279C58.0114 10.236 57.6855 10.0076 57.3208 9.86012C56.956 9.71264 56.5621 9.65004 56.1693 9.6771Z" fill="#041769"/>
<path d="M69.7454 19.0478C67.6479 19.0478 66.058 18.5502 64.9758 17.5551C63.8936 16.56 63.3525 15.1204 63.3525 13.2363V13.087C63.3118 12.2828 63.447 11.4795 63.7489 10.7322C64.0507 9.98492 64.512 9.31147 65.1011 8.75822C66.2701 7.69344 67.8316 7.16271 69.7855 7.16603C71.7394 7.16935 73.3076 7.69676 74.49 8.74827C75.0763 9.30499 75.5347 9.98083 75.8338 10.7296C76.133 11.4784 76.2659 12.2825 76.2235 13.087V13.2611C76.2235 15.0872 75.6573 16.5052 74.52 17.5252C73.3827 18.5452 71.7946 19.0478 69.7454 19.0478ZM69.7855 16.6047C70.7358 16.6703 71.6737 16.361 72.3958 15.744C72.7083 15.412 72.9491 15.0201 73.1034 14.5922C73.2576 14.1644 73.322 13.7097 73.2926 13.2562V13.087C73.3258 12.6104 73.2637 12.132 73.1098 11.6794C72.9559 11.2267 72.7132 10.8089 72.3958 10.4499C71.6639 9.86051 70.7503 9.53884 69.8081 9.53884C68.8658 9.53884 67.9522 9.86051 67.2203 10.4499C66.8993 10.8043 66.6529 11.2188 66.4954 11.6691C66.338 12.1194 66.2727 12.5964 66.3035 13.0721V13.2263C66.2741 13.6798 66.3384 14.1345 66.4927 14.5624C66.6469 14.9902 66.8877 15.3822 67.2003 15.7141C67.9091 16.3395 68.839 16.6598 69.7855 16.6047Z" fill="#041769"/>
<path d="M83.8789 9.63837C83.436 9.60663 82.9917 9.67524 82.5794 9.83901C82.1672 10.0028 81.7978 10.2574 81.4991 10.5837C80.9037 11.3889 80.6177 12.3789 80.6925 13.375V19.0472H77.7766V7.46403H80.2366L80.4921 9.8772C80.8296 9.0529 81.4137 8.35129 82.1654 7.86706C82.9606 7.38468 83.8793 7.14104 84.8108 7.1655C85.4579 7.12897 86.1054 7.2299 86.7102 7.46156C87.315 7.69321 87.863 8.05027 88.3178 8.50891C89.2058 9.54919 89.6561 10.8892 89.5754 12.2506V19.0472H86.6745V12.972C86.6745 11.8243 86.4474 10.9801 85.9932 10.4394C85.7236 10.1572 85.3937 9.9387 85.0278 9.80005C84.6618 9.6614 84.2692 9.60615 83.8789 9.63837Z" fill="#041769"/>
<path d="M97.4162 19.0478C95.332 19.0478 93.7488 18.5502 92.6666 17.5551C91.5845 16.56 91.0434 15.1237 91.0434 13.2462V13.087C91.0044 12.2845 91.1405 11.4832 91.4423 10.7378C91.7441 9.99238 92.2045 9.32052 92.7919 8.76817C93.9576 7.69676 95.5191 7.16271 97.4763 7.16603C99.3668 7.16603 100.86 7.58896 101.955 8.43481C102.511 8.87708 102.965 9.43125 103.289 10.0608C103.613 10.6903 103.799 11.3809 103.834 12.0869H100.763V12.0521C100.692 11.3128 100.332 10.6305 99.7609 10.1514C99.0966 9.69995 98.2998 9.48112 97.4964 9.52944C97.0265 9.49952 96.5555 9.56579 96.1125 9.72413C95.6696 9.88247 95.2641 10.1295 94.9212 10.4499C94.6027 10.8055 94.3585 11.2205 94.2028 11.6706C94.0471 12.1208 93.9831 12.5971 94.0144 13.0721V13.2263C93.9845 13.679 94.0477 14.1331 94.2001 14.5608C94.3526 14.9885 94.5911 15.3809 94.9011 15.7141C95.2522 16.0189 95.6604 16.2518 96.1023 16.3995C96.5442 16.5472 97.0112 16.6068 97.4763 16.5749C98.2948 16.6259 99.1067 16.4016 99.781 15.938C100.357 15.4434 100.716 14.7457 100.783 13.9926H103.834V14.0324C103.814 14.7481 103.64 15.4512 103.322 16.0941C103.005 16.737 102.553 17.3048 101.995 17.7591C100.898 18.6199 99.3752 19.0478 97.4162 19.0478Z" fill="#041769"/>
<path d="M111.175 9.6771C110.734 9.65039 110.294 9.72238 109.885 9.88775C109.477 10.0531 109.111 10.3076 108.815 10.6324C108.215 11.4249 107.922 12.4048 107.988 13.3939V19.0461H105.213V3.74121H107.988V9.71193C108.349 8.9465 108.932 8.30546 109.662 7.87096C110.439 7.43265 111.323 7.21251 112.217 7.23408C112.852 7.19491 113.488 7.29144 114.083 7.51717C114.678 7.7429 115.217 8.09259 115.664 8.54266C116.475 9.41505 116.881 10.6507 116.881 12.2495V19.0461H113.99V13.0754C114.057 12.1708 113.808 11.271 113.284 10.5279C113.02 10.2365 112.693 10.0085 112.328 9.86108C111.963 9.71367 111.568 9.65076 111.175 9.6771Z" fill="#041769"/>
<path d="M122.747 17.2118C122.764 17.4665 122.728 17.7218 122.642 17.9622C122.556 18.2026 122.421 18.423 122.246 18.61C121.83 18.9353 121.306 19.0918 120.778 19.0478C120.243 19.1034 119.706 18.9559 119.275 18.6348C119.11 18.4386 118.987 18.2116 118.912 17.9672C118.837 17.7228 118.813 17.4659 118.839 17.2118C118.816 16.9603 118.844 16.7066 118.923 16.4663C119.001 16.226 119.128 16.0039 119.295 15.8137C119.732 15.5251 120.246 15.3711 120.771 15.3711C121.296 15.3711 121.809 15.5251 122.246 15.8137C122.421 16.001 122.555 16.2214 122.641 16.4617C122.727 16.7021 122.763 16.9572 122.747 17.2118Z" fill="#041769"/>
<path d="M136.189 18.9681H133.729L133.474 16.3559C133.178 17.1697 132.626 17.8674 131.901 18.3462C131.126 18.8177 130.229 19.0546 129.32 19.0278C128.694 19.0675 128.067 18.9715 127.482 18.7464C126.898 18.5213 126.369 18.1725 125.934 17.7242C125.145 16.8552 124.751 15.6096 124.751 13.9876V7.16602H127.662V13.2661C127.592 14.1349 127.829 15.0008 128.333 15.7141C128.616 15.9776 128.949 16.1827 129.312 16.3175C129.675 16.4523 130.061 16.514 130.449 16.4992C130.836 16.4844 131.217 16.3933 131.568 16.2312C131.92 16.0691 132.235 15.8392 132.497 15.5549C133.048 14.7957 133.32 13.872 133.268 12.9377V7.16602H136.199L136.189 18.9681Z" fill="#041769"/>
<path d="M149 16.5251V18.9681H137.602V16.7291L145.293 9.54435H138.038V7.16602H148.94V9.45479L141.48 16.5251H149Z" fill="#041769"/>
<path d="M9.54541 9.06055H11.5945L10.8931 9.89645H10.2468L9.54541 9.06055Z" fill="#3AC6FF"/>
<path d="M13.1259 7.23926L12.4245 8.07516H8.71205L8.22607 7.23926H13.1259Z" fill="#3AC6FF"/>
<path d="M14.6638 5.41504L13.9623 6.25094H1.79785C1.94314 5.96733 2.09846 5.6887 2.2688 5.41504H14.6638Z" fill="#3AC6FF"/>
<path d="M16.1987 3.59277L15.4973 4.42867H2.95703C3.18249 4.13759 3.42331 3.85857 3.67848 3.59277H16.1987Z" fill="#3AC6FF"/>
<path d="M16.2273 0.786271H7.84546C10.5397 -0.26209 13.5331 -0.26209 16.2273 0.786271Z" fill="#3AC6FF"/>
<path d="M19.3354 2.60836H4.74097C5.10664 2.3055 5.49154 2.02629 5.89329 1.77246H18.178C18.5822 2.02504 18.9689 2.3043 19.3354 2.60836Z" fill="#3AC6FF"/>
<path d="M10.634 12.7031L10.5682 12.7831L10.5024 12.7031H10.634Z" fill="#3AC6FF"/>
<path d="M11.0219 19.9932C10.7233 20.0728 10.4088 20.0728 10.1101 19.9932H11.0219Z" fill="#3AC6FF"/>
<path d="M2.09807 13.539H0.765389C0.715288 13.2654 0.670197 12.9867 0.640137 12.7031H1.39666L2.09807 13.539Z" fill="#3AC6FF"/>
<path d="M3.63127 15.3612H1.27653C1.17633 15.0875 1.08114 14.8139 1.00098 14.5303H2.92986L3.63127 15.3612Z" fill="#3AC6FF"/>
<path d="M5.17083 17.1865H2.16478C2.00445 16.9145 1.85415 16.6359 1.71387 16.3506H4.4644L5.17083 17.1865Z" fill="#3AC6FF"/>
<path d="M6.69983 19.0078H3.5084C3.26792 18.7391 3.03746 18.4605 2.82202 18.1719H6.01345L6.69983 19.0078Z" fill="#3AC6FF"/>
<path d="M8.31694 20.8291H5.60148C5.22149 20.5716 4.85682 20.2925 4.50928 19.9932H7.51533L7.81093 20.3464C7.96534 20.5214 8.13464 20.6829 8.31694 20.8291Z" fill="#3AC6FF"/>
<path d="M7.39502 21.8125H16.6787C15.2168 22.4555 13.6357 22.7876 12.0369 22.7876C10.438 22.7876 8.8569 22.4555 7.39502 21.8125Z" fill="#3AC6FF"/>
<path d="M13.6067 19.9932H19.5636C19.2161 20.2925 18.8514 20.5716 18.4714 20.8291H12.8201C13.001 20.6776 13.1686 20.5112 13.3211 20.3315L13.6067 19.9932Z" fill="#3AC6FF"/>
<path d="M15.1416 18.1719H21.2589C21.0435 18.4605 20.813 18.7391 20.5725 19.0078H14.4402L15.1416 18.1719Z" fill="#3AC6FF"/>
<path d="M16.675 16.3506H22.3715C22.2312 16.6359 22.0809 16.9145 21.9206 17.1865H15.9736L16.675 16.3506Z" fill="#3AC6FF"/>
<path d="M18.2115 14.5303H23.0713C22.9861 14.8139 22.8959 15.0875 22.7957 15.3612H17.5352L18.2115 14.5303Z" fill="#3AC6FF"/>
<path d="M19.7448 12.7031H23.4322C23.4021 12.9867 23.357 13.2654 23.3019 13.539H19.0383L19.7448 12.7031Z" fill="#3AC6FF"/>
<path d="M23.4127 9.89645H22.1101L22.8115 9.06055H23.2674C23.3276 9.3342 23.3726 9.61284 23.4127 9.89645Z" fill="#3AC6FF"/>
<path d="M23.5071 11.3953C23.5071 11.5048 23.5071 11.6092 23.5071 11.7187H20.5762L21.2826 10.8828H23.4971C23.5021 11.052 23.5071 11.2212 23.5071 11.3953Z" fill="#3AC6FF"/>
<path d="M10.634 12.7031L10.5682 12.7831L10.5024 12.7031H10.634Z" fill="#3AC6FF"/>
<path d="M11.0219 19.9932C10.7233 20.0728 10.4088 20.0728 10.1101 19.9932H11.0219Z" fill="#3AC6FF"/>
<path d="M24.7949 4.20945L23.0765 6.24944L22.5755 6.86144L22.2548 7.23959L21.5434 8.07549L20.7167 9.07061L20.0103 9.90651L19.1786 10.9016L18.4772 11.7375L17.6455 12.7326L16.9441 13.5685L16.1124 14.5637L15.406 15.3946L14.5743 16.3897L13.8729 17.2256L13.0413 18.2207L12.3398 19.0566L12.0793 19.3601C11.8026 19.6759 11.4327 19.8971 11.0222 19.992H10.1154C9.70103 19.8808 9.33275 19.6422 9.06325 19.3104L8.80272 19.0069L8.10131 18.171L7.26964 17.1759L6.56822 16.34L5.73655 15.3448L5.03514 14.5139L4.20346 13.5188L3.50706 12.7028L2.67539 11.7077L1.96395 10.8817L1.13729 9.8866L0.736483 9.38905L0 8.63773H7.01412L8.15141 9.89656L8.98309 10.8917L9.6845 11.7276L10.5112 12.7227L10.5763 12.8023L10.6414 12.7227L11.4731 11.7276L12.1745 10.8917L13.0062 9.89656L13.7076 9.06066L14.5393 8.06554L15.2457 7.22964L16.0774 6.23452L16.7788 5.39862L17.6105 4.4035L17.7958 4.18457L24.7949 4.20945Z" fill="#0191FF"/>
<path d="M11.0219 19.9932C10.7233 20.0728 10.4088 20.0728 10.1101 19.9932H11.0219Z" fill="#3AC6FF"/>
</g>
<defs>
<clipPath id="clip0_747_32971">
<rect width="149" height="22.7882" fill="white"/>
</clipPath>
</defs>
</svg>
