<svg width="24" height="24" viewBox="0 0 24 24" fill="none" xmlns="http://www.w3.org/2000/svg">
<g clip-path="url(#clip0_740_32325)">
<path d="M11.9996 19.4016C16.0865 19.4016 19.3996 16.0885 19.3996 12.0016C19.3996 7.91466 16.0865 4.60156 11.9996 4.60156C7.9127 4.60156 4.59961 7.91466 4.59961 12.0016C4.59961 16.0885 7.9127 19.4016 11.9996 19.4016Z" stroke="#6974A5" stroke-width="1.2"/>
<path d="M11.47 5L11.0859 5.71711C8.84632 9.89884 8.99251 14.9547 11.47 19M12.57 5L12.9541 5.71711C15.1937 9.89884 15.0475 14.9547 12.57 19M5 14.343C7.33333 14.7855 9.66667 15.0067 12 15.0067C14.3333 15.0067 16.6667 14.7855 19 14.343M5 10.5C7.33333 10.1746 9.66667 10.0119 12 10.0119C14.3333 10.0119 16.6667 10.1746 19 10.5" stroke="#6974A5" stroke-width="1.2" stroke-linecap="round" stroke-linejoin="round"/>
</g>
<defs>
<clipPath id="clip0_740_32325">
<rect width="24" height="24" fill="white"/>
</clipPath>
</defs>
</svg>
