<svg width="24" height="24" viewBox="0 0 24 24" fill="none" xmlns="http://www.w3.org/2000/svg">
<path fill-rule="evenodd" clip-rule="evenodd" d="M18.7058 3.75904C18.6027 3.03863 17.7214 2.74509 17.2069 3.25975L16.0572 4.40969C14.8022 3.72484 13.3628 3.33563 11.8324 3.33563C6.95438 3.33563 3 7.28993 3 12.1678C3 17.0457 6.95438 21 11.8324 21C16.7103 21 20.6647 17.0457 20.6647 12.1678C20.6647 10.6373 20.2754 9.19772 19.5905 7.94268L18.9362 8.59692C19.477 9.67058 19.7815 10.8836 19.7815 12.1678C19.7815 16.5579 16.2226 20.1168 11.8324 20.1168C7.44219 20.1168 3.88324 16.5579 3.88324 12.1678C3.88324 7.77772 7.44219 4.21884 11.8324 4.21884C13.1165 4.21884 14.3295 4.52332 15.403 5.06401L15.2357 5.23143C15.0391 5.428 14.9467 5.70561 14.986 5.98078L15.2714 7.97918C15.2765 8.01451 15.2836 8.04914 15.2926 8.08296L15.2544 8.12128C14.331 7.33975 13.1367 6.8685 11.8324 6.8685C8.90558 6.8685 6.53295 9.24108 6.53295 12.1678C6.53295 15.0945 8.90558 17.4671 11.8324 17.4671C14.7591 17.4671 17.1318 15.0945 17.1318 12.1678C17.1318 10.8634 16.6605 9.66907 15.8789 8.7458L15.9172 8.70745C15.951 8.71649 15.9856 8.72359 16.0209 8.72862L18.0193 9.0141C18.2945 9.05342 18.5722 8.96086 18.7687 8.76429L20.7403 6.79271C21.255 6.27807 20.9611 5.39676 20.2407 5.29385L18.8981 5.10207L18.7058 3.75904ZM14.6272 8.74841L12.7296 10.6459C12.4667 10.4905 12.16 10.4014 11.8324 10.4014C10.8567 10.4014 10.0659 11.1922 10.0659 12.1678C10.0659 13.1434 10.8567 13.9342 11.8324 13.9342C12.808 13.9342 13.5988 13.1434 13.5988 12.1678C13.5988 11.8402 13.5096 11.5334 13.3542 11.2704L15.2517 9.37293C15.8748 10.1342 16.2485 11.1073 16.2485 12.1678C16.2485 14.6067 14.2713 16.5839 11.8324 16.5839C9.39338 16.5839 7.41618 14.6067 7.41618 12.1678C7.41618 9.72888 9.39338 7.75172 11.8324 7.75172C12.8928 7.75172 13.8659 8.12546 14.6272 8.74841ZM18.7732 5.97641C18.3847 5.92092 18.0794 5.61572 18.0238 5.22722L17.8315 3.88419L15.8603 5.85587L16.1458 7.85428L18.1442 8.13976L20.1158 6.16819L18.7732 5.97641ZM11.8324 13.051C12.3202 13.051 12.7156 12.6556 12.7156 12.1678C12.7156 11.68 12.3202 11.2846 11.8324 11.2846C11.3446 11.2846 10.9491 11.68 10.9491 12.1678C10.9491 12.6556 11.3446 13.051 11.8324 13.051Z" fill="#6974A5"/>
</svg>
