<svg width="20" height="20" viewBox="0 0 20 20" fill="none" xmlns="http://www.w3.org/2000/svg">
<path d="M16.8628 13.7473C17.3971 13.9809 17.8127 14.2864 18.1095 14.6637C18.4063 15.041 18.6141 15.4363 18.7329 15.8495C18.8516 16.2628 18.9307 16.6491 18.9703 17.0084C19.0099 17.3678 19.0099 17.6463 18.9703 17.8439C18.9307 18.0416 18.8516 18.1853 18.7329 18.2751C18.4558 18.4907 18.1194 18.6794 17.7236 18.8411C17.3278 19.0028 16.8925 19.1465 16.4175 19.2723C15.9426 19.3981 15.4578 19.4969 14.9631 19.5688L13.5086 19.7844C12.4004 19.9102 11.2328 19.982 10.0059 20C8.75923 19.982 7.58179 19.9102 6.47361 19.7844C5.99868 19.7305 5.51385 19.6586 5.01913 19.5688C4.52441 19.4789 4.04947 19.3801 3.59433 19.2723C3.13918 19.1645 2.70383 19.0208 2.28826 18.8411C1.87269 18.6614 1.52639 18.4728 1.24934 18.2751C1.13061 18.1853 1.0564 18.046 1.02672 17.8574C0.997032 17.6687 0.992084 17.3857 1.01187 17.0084C1.03166 16.6311 1.11082 16.2448 1.24934 15.8495C1.38786 15.4542 1.59565 15.059 1.87269 14.6637C2.14974 14.2684 2.5653 13.9629 3.11939 13.7473L4.95976 12.9927C5.53364 12.7591 6.04815 12.5076 6.5033 12.2381C6.95844 11.9686 7.30475 11.6541 7.54222 11.2948C7.77968 10.9354 7.90831 10.5042 7.9281 10.0011V9.83942C7.59169 9.58787 7.34433 9.29141 7.18602 8.95003L6.5033 7.49467C6.1471 7.13532 5.87995 6.80292 5.70185 6.49747C5.54354 6.24593 5.46438 6.01235 5.46438 5.79674C5.46438 5.58113 5.63259 5.47333 5.969 5.47333C5.85026 4.79057 5.82058 4.17967 5.87995 3.64065C5.91953 3.19147 6.03826 2.77821 6.23615 2.4009C6.43404 2.02358 6.79024 1.83492 7.30475 1.83492C7.40369 1.49354 7.5719 1.1881 7.80937 0.918585C8.02705 0.685008 8.33377 0.469399 8.72955 0.271757C9.12533 0.0741157 9.64974 -0.0157215 10.3028 0.00224593C10.8964 0.00224593 11.3813 0.119034 11.7573 0.352611C12.1332 0.586188 12.4598 0.855699 12.7368 1.16115C13.0139 1.46659 13.2414 1.76305 13.4195 2.05053C13.5976 2.33801 13.7955 2.54464 14.0132 2.67041C14.0923 2.70634 14.1616 2.75126 14.221 2.80517C14.2803 2.85907 14.2803 2.93094 14.221 3.02078C14.1418 3.27232 14.0627 3.64065 13.9835 4.12577C13.9044 4.61089 13.9142 5.06008 14.0132 5.47333C14.3694 5.4913 14.5376 5.5991 14.5178 5.79674C14.498 5.99439 14.3991 6.22796 14.221 6.49747C14.0231 6.80292 13.746 7.13532 13.3898 7.49467C13.2513 7.81808 13.1425 8.09658 13.0633 8.33015C12.9842 8.56373 12.8951 8.77934 12.7962 8.97698C12.6972 9.17462 12.5983 9.32734 12.4993 9.43515C12.4004 9.54295 12.252 9.67771 12.0541 9.83942V10.0011C12.0541 10.5222 12.1827 10.9534 12.44 11.2948C12.6972 11.6362 13.0534 11.9506 13.5086 12.2381C13.9637 12.5255 14.4683 12.7771 15.0224 12.9927C15.5765 13.2083 16.19 13.4599 16.8628 13.7473Z" fill="#6974A5"/>
</svg>
